<svg id="visual" viewBox="0 0 100 10" width="100" height="10" xmlns="http://www.w3.org/2000/svg" xmlns:xlink="http://www.w3.org/1999/xlink" version="1.1"><rect x="0" y="0" width="100" height="10" fill="#688f74"></rect><path d="M0 4L2.3 3.7C4.7 3.3 9.3 2.7 14.2 2.3C19 2 24 2 28.8 1.8C33.7 1.7 38.3 1.3 43 1.5C47.7 1.7 52.3 2.3 57 2.7C61.7 3 66.3 3 71.2 3.2C76 3.3 81 3.7 85.8 3.7C90.7 3.7 95.3 3.3 97.7 3.2L100 3L100 11L97.7 11C95.3 11 90.7 11 85.8 11C81 11 76 11 71.2 11C66.3 11 61.7 11 57 11C52.3 11 47.7 11 43 11C38.3 11 33.7 11 28.8 11C24 11 19 11 14.2 11C9.3 11 4.7 11 2.3 11L0 11Z" fill="#688f74"></path><path d="M0 4L2.3 4C4.7 4 9.3 4 14.2 4C19 4 24 4 28.8 3.8C33.7 3.7 38.3 3.3 43 3C47.7 2.7 52.3 2.3 57 2.2C61.7 2 66.3 2 71.2 2.3C76 2.7 81 3.3 85.8 3.7C90.7 4 95.3 4 97.7 4L100 4L100 11L97.7 11C95.3 11 90.7 11 85.8 11C81 11 76 11 71.2 11C66.3 11 61.7 11 57 11C52.3 11 47.7 11 43 11C38.3 11 33.7 11 28.8 11C24 11 19 11 14.2 11C9.3 11 4.7 11 2.3 11L0 11Z" fill="#618b71"></path><path d="M0 4L2.3 4C4.7 4 9.3 4 14.2 4.2C19 4.3 24 4.7 28.8 4.7C33.7 4.7 38.3 4.3 43 4.3C47.7 4.3 52.3 4.7 57 4.8C61.7 5 66.3 5 71.2 5C76 5 81 5 85.8 5.2C90.7 5.3 95.3 5.7 97.7 5.8L100 6L100 11L97.7 11C95.3 11 90.7 11 85.8 11C81 11 76 11 71.2 11C66.3 11 61.7 11 57 11C52.3 11 47.7 11 43 11C38.3 11 33.7 11 28.8 11C24 11 19 11 14.2 11C9.3 11 4.7 11 2.3 11L0 11Z" fill="#5a886e"></path><path d="M0 4L2.3 4.3C4.7 4.7 9.3 5.3 14.2 5.3C19 5.3 24 4.7 28.8 4.5C33.7 4.3 38.3 4.7 43 4.7C47.7 4.7 52.3 4.3 57 4.3C61.7 4.3 66.3 4.7 71.2 5C76 5.3 81 5.7 85.8 5.7C90.7 5.7 95.3 5.3 97.7 5.2L100 5L100 11L97.7 11C95.3 11 90.7 11 85.8 11C81 11 76 11 71.2 11C66.3 11 61.7 11 57 11C52.3 11 47.7 11 43 11C38.3 11 33.7 11 28.8 11C24 11 19 11 14.2 11C9.3 11 4.7 11 2.3 11L0 11Z" fill="#52846c"></path><path d="M0 6L2.3 6.2C4.7 6.3 9.3 6.7 14.2 6.8C19 7 24 7 28.8 6.8C33.7 6.7 38.3 6.3 43 6.2C47.7 6 52.3 6 57 6C61.7 6 66.3 6 71.2 6.2C76 6.3 81 6.7 85.8 6.7C90.7 6.7 95.3 6.3 97.7 6.2L100 6L100 11L97.7 11C95.3 11 90.7 11 85.8 11C81 11 76 11 71.2 11C66.3 11 61.7 11 57 11C52.3 11 47.7 11 43 11C38.3 11 33.7 11 28.8 11C24 11 19 11 14.2 11C9.3 11 4.7 11 2.3 11L0 11Z" fill="#4a816a"></path><path d="M0 8L2.3 7.8C4.7 7.7 9.3 7.3 14.2 7.3C19 7.3 24 7.7 28.8 7.7C33.7 7.7 38.3 7.3 43 7.2C47.7 7 52.3 7 57 7.2C61.7 7.3 66.3 7.7 71.2 7.8C76 8 81 8 85.8 8C90.7 8 95.3 8 97.7 8L100 8L100 11L97.7 11C95.3 11 90.7 11 85.8 11C81 11 76 11 71.2 11C66.3 11 61.7 11 57 11C52.3 11 47.7 11 43 11C38.3 11 33.7 11 28.8 11C24 11 19 11 14.2 11C9.3 11 4.7 11 2.3 11L0 11Z" fill="#427d68"></path></svg>